#!OML:ASF X:\für Bonn\!DataBase\2005_08_12_Daniel\c3d\Daniel.ASF
:FULLY-SPECIFIED
:DEGREES
16
root 17.6255 16.3241 18.0511 886.21 -45.5036 -900.275
lowerback 41.5605 0.913803 3.86219
upperback 10.9795 -0.30274 -2.35633
thorax -7.58532 -1.1859 -4.23996
lowerneck -5.87766 0.449725 -2.54699
upperneck -3.80498 0.480567 -4.16962
head -0.196465 0.174763 -0.845317
rclavicle -8.74653e-015 -6.75868e-015
rhumerus -34.0761 7.64913 -91.4704
rradius 63.7696
rwrist 4.78072
rhand -23.0074 19.035
rfingers 7.12502
rthumb 3.43595 -10.9171
lclavicle -8.74653e-015 -6.75868e-015
lhumerus -28.3404 19.2476 81.1482
lradius 54.6076
lwrist -10.0958
lhand -11.6105 -7.51202
lfingers 7.12502
lthumb 14.4323 21.9662
rfemur -4.16581 0.919663 25.2656
rtibia 55.7879
rfoot -27.0594 -0.605978
rtoes -9.57634
lfemur -29.9603 -3.5362 -19.5906
ltibia 52.2726
lfoot -18.3388 -8.27773
ltoes -12.6047
17
root 17.5361 16.3145 17.9592 886.055 -45.5996 -900.306
lowerback 41.409 1.01971 3.81788
upperback 11.0445 -0.210815 -2.48115
thorax -7.46302 -1.13746 -4.3903
lowerneck -5.87232 0.386003 -2.45873
upperneck -3.73993 0.400581 -4.06468
head -0.178114 0.135115 -0.828675
rclavicle 1.63003e-014 2.0276e-014
rhumerus -33.9055 7.6527 -91.5952
rradius 64.0077
rwrist 4.75769
rhand -23.0416 18.7808
rfingers 7.12502
rthumb 3.40293 -11.1718
lclavicle 1.63003e-014 2.0276e-014
lhumerus -28.5387 19.2869 80.7364
lradius 54.7804
lwrist -9.87094
lhand -11.5932 -7.59624
lfingers 7.12502
lthumb 14.449 21.8807
rfemur -3.35938 0.70514 25.1763
rtibia 55.5856
rfoot -27.2044 -0.409453
rtoes -9.35277
lfemur -30.0002 -3.99808 -19.4701
ltibia 50.4842
lfoot -18.0653 -8.34691
ltoes -12.8674
18
root 17.4448 16.3047 17.8684 885.918 -45.7085 -900.328
lowerback 41.2809 1.11164 3.73482
upperback 11.0372 -0.129868 -2.56436
thorax -7.42897 -1.09242 -4.47082
lowerneck -5.74337 0.347919 -2.50952
upperneck -3.66262 0.362141 -3.88471
head -0.176491 0.120593 -0.765377
rclavicle -6.34123e-014 8.07066e-014
rhumerus -33.8708 7.71894 -91.6918
rradius 64.28
rwrist 4.69141
rhand -23.0567 18.5323
rfingers 7.12502
rthumb 3.38833 -11.4205
lclavicle -6.34123e-014 8.07066e-014
lhumerus -28.9042 19.3051 80.3591
lradius 55.036
lwrist -9.5492
lhand -11.5889 -7.60887
lfingers 7.12502
lthumb 14.4531 21.8678
rfemur -2.59246 0.440873 25.0814
rtibia 55.4093
rfoot -27.3882 -0.272688
rtoes -9.53357
lfemur -30.0757 -4.48709 -19.3498
ltibia 48.7582
lfoot -17.8282 -8.29344
ltoes -13.1019
19
root 17.3521 16.2915 17.7746 885.765 -45.7913 -900.387
lowerback 41.1861 1.22997 3.60568
upperback 11.0379 -0.0374908 -2.62858
thorax -7.39499 -1.04514 -4.51086
lowerneck -5.65735 0.305176 -2.59646
upperneck -3.58103 0.318164 -3.74105
head -0.166619 0.101931 -0.707547
rclavicle -4.03533e-014 -3.18055e-015
rhumerus -33.8673 7.8181 -91.7572
rradius 64.5592
rwrist 4.65079
rhand -23.0501 18.3137
rfingers 7.12502
rthumb 3.39473 -11.639
lclavicle -4.03533e-014 -3.18055e-015
lhumerus -29.209 19.405 80.0024
lradius 55.1946
lwrist -9.31852
lhand -11.661 -7.72811
lfingers 7.12502
lthumb 14.3837 21.7535
rfemur -1.73192 0.246855 24.9617
rtibia 55.2332
rfoot -27.6387 -0.0313877
rtoes -9.28256
lfemur -30.0795 -4.9609 -19.2231
ltibia 47.0985
lfoot -17.6099 -8.273
ltoes -12.6917
20
root 17.2591 16.275 17.682 885.647 -45.8743 -900.418
lowerback 40.9998 1.34529 3.52465
upperback 11.0552 0.070558 -2.70872
thorax -7.31259 -0.98702 -4.59988
lowerneck -5.61006 0.251032 -2.63745
upperneck -3.4402 0.262287 -3.58177
head -0.132281 0.0759132 -0.652781
rclavicle -7.43455e-014 5.84427e-014
rhumerus -33.7879 7.85921 -91.8376
rradius 64.7735
rwrist 4.52788
rhand -23.0598 18.0492
rfingers 7.12502
rthumb 3.38539 -11.9037
lclavicle -7.43455e-014 5.84427e-014
lhumerus -29.4573 19.487 79.6542
lradius 55.369
lwrist -9.08725
lhand -11.6576 -7.76587
lfingers 7.12502
lthumb 14.387 21.7155
rfemur -0.954966 0.0344023 24.8327
rtibia 55.0898
rfoot -27.9149 0.285286
rtoes -8.98848
lfemur -30.1532 -5.36965 -19.0861
ltibia 45.5113
lfoot -17.405 -8.09887
ltoes -12.8291
21
root 17.1642 16.2548 17.5891 885.521 -45.941 -900.448
lowerback 40.8296 1.47656 3.4006
upperback 11.0642 0.185989 -2.7534
thorax -7.24341 -0.927254 -4.63067
lowerneck -5.52002 0.202596 -2.69362
upperneck -3.35768 0.208025 -3.45422
head -0.12249 0.0516197 -0.605358
rclavicle 7.7526e-014 -2.42517e-014
rhumerus -33.7777 7.87465 -91.8757
rradius 65.0482
rwrist 4.48186
rhand -23.0277 17.9207
rfingers 7.12502
rthumb 3.41633 -12.0317
lclavicle 7.7526e-014 -2.42517e-014
lhumerus -29.7059 19.7893 79.3237
lradius 55.4927
lwrist -9.05865
lhand -11.6722 -7.92551
lfingers 7.12502
lthumb 14.3729 21.5569
rfemur -0.180672 -0.194487 24.7067
rtibia 54.969
rfoot -28.2109 0.550213
rtoes -8.93345
lfemur -30.2015 -5.84027 -18.9307
ltibia 44.0084
lfoot -17.3431 -7.74426
ltoes -12.3916
22
root 17.0695 16.2312 17.4961 885.409 -46.0153 -900.504
lowerback 40.6644 1.61074 3.26985
upperback 11.0715 0.300658 -2.81825
thorax -7.17792 -0.867495 -4.67882
lowerneck -5.42411 0.156906 -2.66077
upperneck -3.2631 0.152698 -3.37446
head -0.10949 0.0257232 -0.587127
rclavicle -1.76918e-014 2.06736e-014
rhumerus -33.7685 7.92615 -91.9306
rradius 65.2515
rwrist 4.44746
rhand -23.0908 17.8442
rfingers 7.12502
rthumb 3.35537 -12.1091
lclavicle -1.76918e-014 2.06736e-014
lhumerus -29.9155 20.1696 78.9574
lradius 55.5395
lwrist -9.12701
lhand -11.6193 -8.1148
lfingers 7.12502
lthumb 14.4238 21.364
rfemur 0.59065 -0.438119 24.5573
rtibia 54.8663
rfoot -28.4873 0.793198
rtoes -8.81672
lfemur -30.2571 -6.31641 -18.7915
ltibia 42.6061
lfoot -17.3805 -7.23081
ltoes -11.6514
23
root 16.972 16.2062 17.4045 885.292 -46.086 -900.535
lowerback 40.4747 1.72585 3.18421
upperback 11.0937 0.4066 -2.89672
thorax -7.08792 -0.810953 -4.76124
lowerneck -5.33323 0.104364 -2.64756
upperneck -3.17279 0.0897897 -3.25766
head -0.0971267 -0.00353916 -0.554516
rclavicle 1.51076e-014 4.29375e-014
rhumerus -33.8051 7.91987 -92.0005
rradius 65.5535
rwrist 4.43498
rhand -23.0982 17.6718
rfingers 7.12502
rthumb 3.3483 -12.2817
lclavicle 1.51076e-014 4.29375e-014
lhumerus -30.085 20.4 78.5854
lradius 55.6227
lwrist -9.07348
lhand -11.6237 -8.09776
lfingers 7.12502
lthumb 14.4196 21.3813
rfemur 1.35008 -0.741425 24.3894
rtibia 54.7755
rfoot -28.8356 1.02317
rtoes -9.09034
lfemur -30.2887 -6.85236 -18.6077
ltibia 41.3129
lfoot -17.5081 -6.672
ltoes -10.8379
24
root 16.8734 16.1806 17.3111 885.212 -46.1532 -900.588
lowerback 40.2325 1.85712 3.04591
upperback 11.1584 0.505423 -2.96766
thorax -6.93571 -0.759492 -4.80447
lowerneck -5.27989 0.0839983 -2.49979
upperneck -3.14111 0.0573646 -3.27488
head -0.0957833 -0.0198808 -0.584287
rclavicle -1.00983e-013 2.70347e-014
rhumerus -33.7434 8.00209 -92.0639
rradius 65.8112
rwrist 4.33319
rhand -23.181 17.6013
rfingers 7.12502
rthumb 3.26829 -12.3534
lclavicle -1.00983e-013 2.70347e-014
lhumerus -30.1907 20.818 78.2285
lradius 55.7043
lwrist -9.15188
lhand -11.6103 -8.25511
lfingers 7.12502
lthumb 14.4325 21.2231
rfemur 2.10438 -0.976763 24.2162
rtibia 54.6803
rfoot -29.1063 1.3053
rtoes -8.92085
lfemur -30.3237 -7.43086 -18.4121
ltibia 40.1306
lfoot -17.8323 -6.02841
ltoes -10.2243
25
root 16.7726 16.1532 17.2183 885.063 -46.235 -900.567
lowerback 40.0385 1.95307 3.03507
upperback 11.2238 0.605772 -3.0729
thorax -6.79449 -0.705852 -4.95111
lowerneck -5.38348 0.0299771 -2.39015
upperneck -2.96712 -0.00216143 -3.15133
head -0.0262385 -0.051746 -0.565639
rclavicle -3.89618e-014 5.48646e-014
rhumerus -33.6426 7.94972 -92.1549
rradius 65.9853
rwrist 4.38372
rhand -23.3084 17.6529
rfingers 7.12502
rthumb 3.14531 -12.3037
lclavicle -3.89618e-014 5.48646e-014
lhumerus -30.2719 21.0801 77.8485
lradius 55.7783
lwrist -9.20903
lhand -11.6398 -8.32522
lfingers 7.12502
lthumb 14.4041 21.155
rfemur 2.87727 -1.26059 24.0744
rtibia 54.5787
rfoot -29.3781 1.57122
rtoes -8.93386
lfemur -30.3203 -8.03338 -18.1728
ltibia 39.0429
lfoot -18.2858 -5.30455
ltoes -10.3807
26
root 16.6717 16.1264 17.1239 884.997 -46.2753 -900.594
lowerback 39.8384 2.09022 2.90786
upperback 11.2658 0.722891 -3.12023
thorax -6.67738 -0.646457 -4.98076
lowerneck -5.48993 -0.014982 -2.40577
upperneck -2.85175 -0.0507094 -3.09403
head 0.0258794 -0.0779311 -0.546691
rclavicle -1.02573e-013 4.92986e-014
rhumerus -33.5368 8.0225 -92.161
rradius 66.1235
rwrist 4.42075
rhand -23.4848 17.7427
rfingers 7.12502
rthumb 2.97496 -12.2163
lclavicle -1.02573e-013 4.92986e-014
lhumerus -30.3628 21.4267 77.5622
lradius 55.8705
lwrist -9.22926
lhand -11.7055 -8.29059
lfingers 7.12502
lthumb 14.3408 21.1941
rfemur 3.58194 -1.48121 23.9196
rtibia 54.4877
rfoot -29.5936 1.80248
rtoes -8.97687
lfemur -30.3566 -8.53094 -17.9741
ltibia 38.0436
lfoot -18.7757 -4.61021
ltoes -11.0946
27
root 16.5683 16.0958 17.0306 884.909 -46.3294 -900.568
lowerback 39.6387 2.18568 2.87876
upperback 11.3043 0.825696 -3.19672
thorax -6.56309 -0.590991 -5.08707
lowerneck -5.66843 -0.0628427 -2.47603
upperneck -2.65174 -0.0902396 -2.89113
head 0.11553 -0.0990675 -0.474741
rclavicle 4.96962e-014 -6.12257e-014
rhumerus -33.5105 8.06017 -92.199
rradius 66.3649
rwrist 4.37818
rhand -23.655 17.789
rfingers 7.12502
rthumb 2.8105 -12.1723
lclavicle 4.96962e-014 -6.12257e-014
lhumerus -30.4759 21.6949 77.2496
lradius 55.9852
lwrist -9.19349
lhand -11.7769 -8.29495
lfingers 7.12502
lthumb 14.2719 21.1946
rfemur 4.27019 -1.75116 23.747
rtibia 54.3998
rfoot -29.7488 2.13895
rtoes -9.09541
lfemur -30.4378 -8.94877 -17.7921
ltibia 37.1261
lfoot -19.1539 -3.88557
ltoes -11.3922
28
root 16.4635 16.0636 16.9372 884.768 -46.3887 -900.542
lowerback 39.5431 2.27917 2.82976
upperback 11.3429 0.91262 -3.26301
thorax -6.48316 -0.547451 -5.1655
lowerneck -5.97503 -0.110697 -2.47067
upperneck -2.40765 -0.132295 -2.83077
head 0.240581 -0.125892 -0.459108
rclavicle 9.14409e-014 -5.08889e-014
rhumerus -33.4097 8.11739 -92.2253
rradius 66.5014
rwrist 4.47507
rhand -23.8406 17.8831
rfingers 7.12502
rthumb 2.63132 -12.0804
lclavicle 9.14409e-014 -5.08889e-014
lhumerus -30.6411 21.9321 76.9653
lradius 56.1874
lwrist -9.04912
lhand -11.9064 -8.15718
lfingers 7.12502
lthumb 14.1472 21.3411
rfemur 5.04422 -2.00778 23.5828
rtibia 54.3033
rfoot -29.898 2.4561
rtoes -8.99817
lfemur -30.4358 -9.27766 -17.668
ltibia 36.3089
lfoot -19.6628 -3.01088
ltoes -12.592
